<?xml version="1.0" encoding="utf-8"?>
<!-- Generator: Adobe Illustrator 18.0.0, SVG Export Plug-In . SVG Version: 6.00 Build 0)  -->
<!DOCTYPE svg PUBLIC "-//W3C//DTD SVG 1.1//EN" "http://www.w3.org/Graphics/SVG/1.1/DTD/svg11.dtd">
<svg version="1.1" id="Capa_1" xmlns="http://www.w3.org/2000/svg" xmlns:xlink="http://www.w3.org/1999/xlink" x="0px" y="0px"
	 width="36px" height="24px" viewBox="0 0 36 24" enable-background="new 0 0 36 24" xml:space="preserve">
<g>
	<rect x="9" y="20" width="8" height="1"/>
	<polygon points="4,24 19,24 19,22 5,22 	"/>
	<path d="M2,2h22v5h2V1c0-0.6-0.4-1-1-1H1C0.4,0,0,0.4,0,1v17c0,0.6,0.4,1,1,1h18v-2H2V2z"/>
	<path d="M31.5,12c0.7,0,1.2,0.4,1.4,1H36v-2l-3-3H20v3h7v1v1.1c0.6,0.2,1,0.8,1,1.4c0,0.8-0.7,1.5-1.5,1.5S25,15.3,25,14.5
		c0-0.7,0.4-1.2,1-1.4V12h-6v3h3v1v1.1c0.6,0.2,1,0.8,1,1.4c0,0.8-0.7,1.5-1.5,1.5S21,19.3,21,18.5c0-0.7,0.4-1.2,1-1.4V16h-2v8h16
		v-3h-3.1c-0.2,0.6-0.8,1-1.4,1c-0.8,0-1.5-0.7-1.5-1.5s0.7-1.5,1.5-1.5c0.7,0,1.2,0.4,1.4,1H36v-6h-3.1c-0.2,0.6-0.8,1-1.4,1
		c-0.8,0-1.5-0.7-1.5-1.5S30.7,12,31.5,12z"/>
</g>
</svg>
