<svg xmlns="http://www.w3.org/2000/svg" style="display: none;">
  
    <symbol id="icon-board" viewBox="0 0 512 512">
      <path d="m512 512l-512 0 0-170 218 0 32-35c6 0 16 7 22 7 22 0 42-20 42-42 0-22-20-42-42-42-22 0-42 20-42 42 0 6 0 10 4 16l-32 32-202 0 0-170 70 0 0 20c-19 3-32 19-32 38 0 22 20 42 42 42 22 0 42-20 42-42 0-19-13-35-29-38l0-42-93 0 0-42 166 0 0 52c-19 3-32 19-32 38 0 22 20 42 42 42 22 0 42-20 42-42 0-19-13-35-29-38l0-74-189 0 0-64 384 0 128 128-74 0c-6-16-19-26-38-26-22 0-42 20-42 42 0 22 20 42 42 42 19 0 35-16 38-32l74 0 0 230-74 0c-6-16-19-26-38-26-22 0-42 20-42 42 0 22 20 42 42 42 19 0 35-13 38-32l74 0z"/>
    </symbol>
  
    <symbol id="icon-port" viewBox="0 0 512 512">
      <path d="m256 0c-141 0-256 115-256 256 0 141 115 256 256 256 141 0 256-115 256-256 0-141-115-256-256-256z m79 231l0 50c0 9-6 17-11 20l-60 51 0 28c17 3 31 17 31 36 0 20-16 37-39 37-23 0-39-17-39-37 0-17 14-33 31-36l0-85-57-50c-8-3-11-12-11-20l0-48-17 0 0-45 48 0 0 45-17 0 0 48c0 6 3 8 9 11l14 12 33 28 0-178-17 0 20-39 28 39-17 0 0 231 34-28 14-11c3-3 9-6 9-11l0-48c-9-3-17-12-17-23 0-11 11-22 25-22 14 0 25 11 25 22-5 11-11 17-19 23z"/>
    </symbol>
  
    <symbol id="icon-maximize" viewBox="0 0 512 512">
      <path d="m410 51c14 0 26 5 36 15c10 10 15 22 15 36c0 0 0 205 0 205c0 14-5 26-15 36c-10 10-22 15-36 15c0 0-205 0-205 0c-14 0-26-5-36-15c-10-10-15-22-15-36c0 0 0-206 0-206c0-13 5-25 14-35c10-10 22-15 37-15c0 0 205 0 205 0m0 256c0 0 0-205 0-205c0 0-205 0-205 0c0 0 0 205 0 205c0 0 205 0 205 0m-308-51c0 0 0 154 0 154c0 0 154 0 154 0c0 0 0 51 0 51c0 0-154 0-154 0c-13 0-25-5-35-16c-11-10-16-22-16-35c0 0 0-154 0-154c0 0 51 0 51 0"/>
    </symbol>
  
    <symbol id="icon-minus" viewBox="0 0 512 512">
      <path d="m389 230c10 0 15 9 15 26c0 17-5 26-15 26c0 0-266 0-266 0c-10 0-15-9-15-26c0-17 5-26 15-26c0 0 266 0 266 0"/>
    </symbol>
  
    <symbol id="icon-close" viewBox="0 0 512 512">
      <path d="m367 336c6 6 9 13 9 22c0 8-3 16-9 22c-6 5-13 8-22 8c-8 0-16-3-22-8c0 0-68-78-68-78c0 0-67 78-67 78c-6 5-14 8-22 8c-9 0-16-3-22-8c-6-6-8-14-8-22c0-9 2-16 8-22c0 0 71-80 71-80c0 0-71-81-71-81c-6-6-8-13-8-22c0-8 2-16 8-22c6-5 13-8 22-8c8 0 16 3 22 8c0 0 67 78 67 78c0 0 68-78 68-78c6-5 14-8 22-8c9 0 16 3 22 8c6 6 9 14 9 22c0 9-3 16-9 22c0 0-71 81-71 81c0 0 71 80 71 80"/>
    </symbol>
  
</svg>
