<?xml version="1.0" encoding="utf-8"?>
<!-- Generator: Adobe Illustrator 18.0.0, SVG Export Plug-In . SVG Version: 6.00 Build 0)  -->
<!DOCTYPE svg PUBLIC "-//W3C//DTD SVG 1.1//EN" "http://www.w3.org/Graphics/SVG/1.1/DTD/svg11.dtd">
<svg version="1.1" id="Capa_1" xmlns="http://www.w3.org/2000/svg" xmlns:xlink="http://www.w3.org/1999/xlink" x="0px" y="0px"
	 width="30px" height="24px" viewBox="0 0 30 24" enable-background="new 0 0 30 24" xml:space="preserve">
<g>
	<path d="M18.2,15.6c0-0.1,0-0.2-0.1-0.3c-0.6-0.7-1.1-1.3-1.4-1.8c0.2-0.4,0.4-0.8,0.5-1.2l2.4-0.4c0.1,0,0.2-0.1,0.3-0.2
		c0.1-0.1,0.1-0.2,0.1-0.3V8.6c0-0.1,0-0.2-0.1-0.3c-0.1-0.1-0.2-0.1-0.3-0.2l-2.4-0.4C17.1,7.4,17,7,16.7,6.5
		c0.2-0.2,0.4-0.5,0.7-0.9c0.3-0.4,0.5-0.7,0.7-0.8c0.1-0.1,0.1-0.2,0.1-0.3c0-0.3-0.8-1.1-2.2-2.5c-0.1-0.1-0.2-0.1-0.3-0.1
		c-0.1,0-0.2,0-0.3,0.1l-1.8,1.4C13,3,12.6,2.9,12.3,2.8l-0.4-2.4c0-0.1-0.1-0.2-0.2-0.3C11.7,0,11.6,0,11.5,0H8.5
		C8.3,0,8.2,0.1,8.1,0.4C8,0.9,7.8,1.7,7.7,2.8C7.3,2.9,6.9,3.1,6.5,3.3L4.7,1.9C4.6,1.8,4.5,1.8,4.4,1.8c-0.2,0-0.6,0.3-1.2,0.9
		C2.5,3.3,2.1,3.8,1.9,4.1C1.8,4.2,1.8,4.3,1.8,4.4c0,0.1,0,0.2,0.1,0.3C2.5,5.4,2.9,6,3.3,6.5C3.1,6.9,2.9,7.3,2.8,7.7L0.4,8.1
		c-0.1,0-0.2,0.1-0.3,0.2C0,8.3,0,8.4,0,8.5v2.9c0,0.1,0,0.2,0.1,0.3c0.1,0.1,0.2,0.1,0.3,0.1l2.4,0.4c0.1,0.4,0.3,0.8,0.5,1.3
		c-0.2,0.2-0.4,0.5-0.7,1c-0.3,0.4-0.5,0.7-0.6,0.8c-0.1,0.1-0.1,0.2-0.1,0.3c0,0.3,0.8,1.1,2.3,2.5c0.1,0.1,0.2,0.1,0.3,0.1
		c0.1,0,0.2,0,0.3-0.1l1.8-1.4C7,17,7.4,17.1,7.7,17.2l0.4,2.4c0,0.1,0.1,0.2,0.2,0.3C8.3,20,8.4,20,8.5,20h2.9
		c0.2,0,0.4-0.1,0.5-0.4c0.1-0.5,0.2-1.3,0.4-2.4c0.4-0.1,0.8-0.3,1.2-0.5l1.8,1.4c0.1,0.1,0.2,0.1,0.3,0.1c0.2,0,0.6-0.3,1.2-0.9
		c0.6-0.6,1-1.1,1.3-1.4C18.2,15.8,18.2,15.7,18.2,15.6z M12.8,12.8C12,13.6,11.1,14,10,14c-1.1,0-2-0.4-2.8-1.2C6.4,12,6,11.1,6,10
		c0-1.1,0.4-2,1.2-2.8C8,6.4,8.9,6,10,6c1.1,0,2,0.4,2.8,1.2C13.6,8,14,8.9,14,10C14,11.1,13.6,12,12.8,12.8z"/>
	<path d="M27.7,16.3c-0.1-0.3-0.3-0.6-0.5-0.8c0.5-1.2,0.8-2,0.8-2.2c0,0,0-0.1-0.1-0.1C26.7,12.4,26,12,26,12l-0.1,0
		c-0.4,0.4-0.9,1.1-1.4,1.8c-0.2,0-0.4,0-0.5,0c-0.1,0-0.3,0-0.5,0c-0.1-0.2-0.4-0.6-0.8-1.1S22.1,12,22,12c0,0-0.2,0.1-0.5,0.3
		c-0.3,0.2-0.6,0.4-0.9,0.6c-0.3,0.2-0.5,0.3-0.5,0.3c0,0-0.1,0.1-0.1,0.1c0,0.3,0.3,1,0.8,2.2c-0.2,0.2-0.3,0.5-0.5,0.8
		c-1.6,0.2-2.3,0.3-2.3,0.5v2.3c0,0.2,0.8,0.3,2.3,0.5c0.1,0.3,0.3,0.6,0.5,0.8c-0.5,1.2-0.8,2-0.8,2.2c0,0,0,0.1,0.1,0.1
		C21.3,23.6,22,24,22,24c0.1,0,0.3-0.3,0.7-0.8c0.4-0.5,0.7-0.9,0.8-1.1c0.2,0,0.4,0,0.5,0c0.1,0,0.3,0,0.5,0
		c0.1,0.2,0.4,0.6,0.8,1.1c0.4,0.5,0.6,0.8,0.7,0.8c0,0,0.7-0.4,1.9-1.2c0,0,0.1-0.1,0.1-0.1c0-0.3-0.3-1-0.8-2.2
		c0.2-0.3,0.3-0.6,0.5-0.8c1.6-0.2,2.3-0.3,2.3-0.5v-2.3C30,16.7,29.2,16.5,27.7,16.3z M25.4,19.5c-0.4,0.4-0.9,0.6-1.4,0.6
		s-1-0.2-1.4-0.6C22.2,19.1,22,18.6,22,18c0-0.6,0.2-1.1,0.6-1.5s0.9-0.6,1.4-0.6c0.5,0,1,0.2,1.4,0.6c0.4,0.4,0.6,0.9,0.6,1.5
		C26,18.6,25.8,19.1,25.4,19.5z"/>
</g>
</svg>
